<?xml version="1.0" encoding="UTF-8"?>
<svg id="Layer_2" data-name="Layer 2" xmlns="http://www.w3.org/2000/svg" viewBox="0 0 516 97.35">
  <defs>
    <style>
      .cls-1 {
        fill: #fff;
      }

      .cls-2 {
        fill: #44acff;
      }
    </style>
  </defs>
  <g id="_Слой_1" data-name="Слой 1">
    <g>
      <g>
        <path class="cls-1" d="M0,37.46H42.84v9.24H26.29v49.55h-9.66V46.7H0v-9.24Z"/>
        <path class="cls-1" d="M78.2,79.12H44.77c.67,3.14,2.2,5.57,4.58,7.31,2.38,1.74,5.33,2.6,8.86,2.6,4.76,0,8.37-1.74,10.84-5.21l7.48,4.37c-4.09,6.1-10.22,9.15-18.39,9.15-6.78,0-12.29-2.07-16.55-6.22-4.2-4.2-6.3-9.49-6.3-15.87s2.07-11.45,6.21-15.71c4.09-4.25,9.41-6.38,15.96-6.38,6.1,0,11.14,2.16,15.12,6.47,3.98,4.31,5.96,9.55,5.96,15.71,0,1.12-.11,2.38-.34,3.78Zm-33.51-7.39h24.69c-.62-3.3-2-5.85-4.16-7.64-2.16-1.79-4.77-2.69-7.85-2.69-3.36,0-6.16,.92-8.4,2.77-2.24,1.85-3.67,4.37-4.28,7.56Z"/>
        <path class="cls-1" d="M104.4,54.26v8.74h-10.41v20.16c0,1.74,.39,2.98,1.18,3.74,.78,.76,1.94,1.18,3.49,1.26,1.54,.08,3.46,.07,5.75-.04v8.15c-6.94,.84-11.93,.24-14.95-1.81s-4.54-5.81-4.54-11.3v-20.16h-7.73v-8.74h7.73v-9.07l9.07-2.69v11.76h10.41Z"/>
        <path class="cls-1" d="M117.92,54.26v7.06c2.3-5.21,6.61-7.81,12.93-7.81v9.83c-3.42-.22-6.44,.62-9.07,2.52-2.58,1.85-3.86,4.93-3.86,9.24v21.17h-9.07V54.26h9.07Z"/>
        <path class="cls-1" d="M164.71,60.23v-5.96h9.07v42h-9.07v-6.05c-3.42,4.76-8.32,7.14-14.7,7.14-5.77,0-10.7-2.13-14.78-6.38-4.09-4.25-6.13-9.49-6.13-15.71s2.04-11.45,6.13-15.71c4.09-4.25,9.01-6.38,14.78-6.38,6.38,0,11.28,2.35,14.7,7.06Zm-22.76,24.69c2.52,2.52,5.68,3.78,9.49,3.78s6.97-1.26,9.49-3.78c2.52-2.58,3.78-5.8,3.78-9.66s-1.26-7.05-3.78-9.57c-2.52-2.58-5.68-3.86-9.49-3.86s-6.97,1.29-9.49,3.86c-2.52,2.52-3.78,5.71-3.78,9.57s1.26,7.03,3.78,9.66Z"/>
        <path class="cls-1" d="M203.59,54.26v8.74h-10.41v20.16c0,1.74,.39,2.98,1.18,3.74,.78,.76,1.94,1.18,3.49,1.26,1.54,.08,3.46,.07,5.75-.04v8.15c-6.94,.84-11.93,.24-14.95-1.81s-4.54-5.81-4.54-11.3v-20.16h-7.73v-8.74h7.73v-9.07l9.07-2.69v11.76h10.41Z"/>
        <path class="cls-1" d="M216.19,46.28c-1.12,1.12-2.47,1.68-4.03,1.68s-2.94-.56-4.12-1.68c-1.12-1.18-1.68-2.55-1.68-4.12s.56-2.91,1.68-4.03c1.12-1.18,2.49-1.76,4.12-1.76s2.99,.59,4.12,1.76c1.12,1.12,1.68,2.46,1.68,4.03s-.59,2.94-1.76,4.12Zm.5,49.97h-9.07V54.26h9.07v42Z"/>
        <path class="cls-1" d="M242.82,97.35c-6.22,0-11.45-2.13-15.71-6.38-4.31-4.31-6.47-9.55-6.47-15.71s2.15-11.39,6.47-15.71c4.25-4.25,9.49-6.38,15.71-6.38s11.45,2.13,15.71,6.38c4.31,4.31,6.47,9.55,6.47,15.71s-2.16,11.4-6.47,15.71c-4.26,4.26-9.49,6.38-15.71,6.38Zm-13.1-22.09c0,3.81,1.26,6.97,3.78,9.49,2.52,2.52,5.63,3.78,9.32,3.78s6.8-1.26,9.32-3.78c2.52-2.52,3.78-5.68,3.78-9.49s-1.26-6.97-3.78-9.49c-2.52-2.52-5.63-3.78-9.32-3.78s-6.8,1.26-9.32,3.78c-2.52,2.52-3.78,5.68-3.78,9.49Z"/>
        <path class="cls-1" d="M291.11,53.17c4.87,0,8.78,1.55,11.72,4.66,2.94,3.11,4.41,7.32,4.41,12.64v25.79h-9.07v-24.86c0-3.14-.84-5.54-2.52-7.22-1.68-1.68-3.98-2.52-6.89-2.52-3.3,0-5.91,1.02-7.81,3.07-1.9,2.04-2.86,5.05-2.86,9.03v22.51h-9.07V54.26h9.07v5.38c2.8-4.31,7.14-6.47,13.02-6.47Z"/>
      </g>
      <g>
        <path class="cls-1" d="M363.72,37.46v49.55h23.94v9.24h-33.6V37.46h9.66Z"/>
        <path class="cls-1" d="M421.92,60.23v-5.96h9.07v42h-9.07v-6.05c-3.42,4.76-8.32,7.14-14.7,7.14-5.77,0-10.7-2.13-14.78-6.38-4.09-4.25-6.13-9.49-6.13-15.71s2.04-11.45,6.13-15.71c4.09-4.25,9.01-6.38,14.78-6.38,6.38,0,11.28,2.35,14.7,7.06Zm-22.76,24.69c2.52,2.52,5.68,3.78,9.49,3.78s6.97-1.26,9.49-3.78c2.52-2.58,3.78-5.8,3.78-9.66s-1.26-7.05-3.78-9.57c-2.52-2.58-5.68-3.86-9.49-3.86s-6.97,1.29-9.49,3.86c-2.52,2.52-3.78,5.71-3.78,9.57s1.26,7.03,3.78,9.66Z"/>
        <path class="cls-1" d="M461.15,53.17c5.77,0,10.69,2.13,14.78,6.38,4.09,4.26,6.13,9.49,6.13,15.71s-2.04,11.45-6.13,15.71c-4.09,4.26-9.02,6.38-14.78,6.38-6.38,0-11.28-2.38-14.7-7.14v6.05h-9.07V37.46h9.07v22.76c3.47-4.7,8.37-7.06,14.7-7.06Zm-10.92,31.75c2.52,2.52,5.68,3.78,9.49,3.78s6.97-1.26,9.49-3.78c2.52-2.58,3.78-5.8,3.78-9.66s-1.26-7.05-3.78-9.57c-2.52-2.58-5.68-3.86-9.49-3.86s-6.97,1.29-9.49,3.86c-2.52,2.52-3.78,5.71-3.78,9.57s1.26,7.03,3.78,9.66Z"/>
        <path class="cls-1" d="M493.4,65.85c0,1.29,.67,2.34,2.02,3.15,1.34,.81,3.3,1.58,5.88,2.31,1.96,.45,3.67,.92,5.12,1.43,1.45,.5,2.99,1.25,4.62,2.23,1.62,.98,2.87,2.27,3.74,3.86,.87,1.6,1.27,3.46,1.22,5.59,0,4.03-1.57,7.2-4.7,9.49-3.14,2.3-7.03,3.44-11.67,3.44-4.14,0-7.7-.87-10.67-2.6-2.97-1.74-5.12-4.14-6.47-7.22l7.81-4.54c1.4,4.03,4.51,6.05,9.32,6.05s7.14-1.57,7.14-4.7c0-2.3-2.66-4.09-7.98-5.38-2.02-.5-3.71-1.01-5.08-1.51-1.37-.5-2.89-1.23-4.54-2.18-1.65-.95-2.91-2.21-3.78-3.78-.87-1.57-1.28-3.39-1.22-5.46,0-3.86,1.45-6.97,4.37-9.32,2.97-2.35,6.63-3.53,11-3.53,3.47,0,6.56,.77,9.28,2.31,2.72,1.54,4.8,3.68,6.26,6.43l-7.64,4.28c-1.4-3.19-4.03-4.79-7.9-4.79-1.79,0-3.26,.39-4.41,1.18-1.15,.79-1.72,1.88-1.72,3.28Z"/>
      </g>
      <g>
        <g>
          <polygon class="cls-2" points="339.38 .08 330.93 19.18 347.82 19.18 339.38 .08"/>
          <rect class="cls-2" x="334.53" y="17.33" width="9.7" height="79.37"/>
        </g>
        <g>
          <polygon class="cls-2" points="320.38 0 311.94 19.1 328.83 19.1 320.38 0"/>
          <rect class="cls-2" x="315.53" y="17.25" width="9.7" height="79.45"/>
        </g>
      </g>
    </g>
  </g>
</svg>